<svg width="18" height="18" viewBox="0 0 18 18" fill="none" xmlns="http://www.w3.org/2000/svg">
<path d="M8.72514 0C8.52796 0 8.36004 0.139295 8.32404 0.332386L8.17223 1.14098C8.10923 1.47725 7.84131 1.72506 7.50586 1.79297C7.22686 1.84942 6.95281 1.92115 6.68608 2.0087C6.36208 2.11506 6.00653 2.03553 5.7848 1.77699L5.25266 1.15536C5.12421 1.00645 4.90669 0.970888 4.73651 1.06907L4.26349 1.34233C4.09249 1.44051 4.01587 1.64719 4.08132 1.83292L4.35618 2.61115C4.46909 2.93351 4.36134 3.28018 4.10689 3.50764C3.89662 3.69582 3.6966 3.89502 3.50923 4.10529C3.28178 4.35975 2.93511 4.46749 2.61275 4.35458L1.83292 4.08132C1.64719 4.01587 1.44211 4.09331 1.34393 4.2635L1.06907 4.7365C0.97007 4.9075 1.00723 5.12421 1.15696 5.25266L1.77859 5.7848C2.03713 6.00653 2.11666 6.36208 2.0103 6.68608C1.92275 6.95281 1.85102 7.22686 1.79457 7.50586C1.72666 7.84131 1.47885 8.10923 1.14258 8.17223L0.333984 8.32404C0.140075 8.36004 0 8.52796 0 8.72514V9.27486C0 9.47204 0.139295 9.63996 0.332386 9.67596L1.14098 9.82777C1.47725 9.89077 1.72506 10.1587 1.79297 10.4941C1.84942 10.774 1.92115 11.0472 2.0087 11.3139C2.11506 11.6379 2.03553 11.9935 1.77699 12.2152L1.15536 12.7473C1.00645 12.8758 0.970888 13.0933 1.06907 13.2635L1.34233 13.7365C1.44051 13.9075 1.64719 13.9841 1.83292 13.9187L2.61115 13.6438C2.93351 13.5309 3.28018 13.6387 3.50764 13.8931C3.69582 14.1034 3.89502 14.3034 4.10529 14.4908C4.35975 14.7182 4.46749 15.0649 4.35458 15.3873L4.08132 16.1671C4.01587 16.3528 4.09331 16.5579 4.26349 16.6561L4.73651 16.9309C4.90751 17.0299 5.12421 16.9928 5.25266 16.843L5.7848 16.2214C6.00653 15.9629 6.36208 15.8833 6.68608 15.9897C6.95281 16.0772 7.22686 16.149 7.50586 16.2054C7.84131 16.2733 8.10923 16.5211 8.17223 16.8574L8.32404 17.666C8.36004 17.8599 8.52796 18 8.72514 18H9.27486C9.47204 18 9.64 17.8599 9.67436 17.6676L9.82617 16.859C9.88917 16.5227 10.1571 16.2749 10.4925 16.207C10.7724 16.1506 11.0456 16.0788 11.3123 15.9913C11.6363 15.8849 11.9919 15.9645 12.2136 16.223L12.7457 16.8446C12.8742 16.9935 13.0901 17.0307 13.2603 16.9325L13.7349 16.6577C13.9059 16.5595 13.9825 16.3544 13.9171 16.1687L13.6438 15.3889C13.5309 15.0665 13.6387 14.7198 13.8931 14.4924C14.1034 14.3042 14.3034 14.105 14.4908 13.8947C14.7182 13.6403 15.0657 13.5325 15.3873 13.6454L16.1671 13.9187C16.3528 13.9841 16.5579 13.9067 16.6561 13.7365L16.9309 13.2635C17.0299 13.0925 16.9928 12.8758 16.843 12.7473L16.2214 12.2152C15.9629 11.9935 15.8833 11.6379 15.9897 11.3139C16.0772 11.0472 16.149 10.7731 16.2054 10.4941C16.2733 10.1587 16.5211 9.89077 16.8574 9.82777L17.666 9.67596C17.8599 9.63996 18 9.47204 18 9.27486V8.72514C18 8.52796 17.8599 8.36082 17.6676 8.32564L16.859 8.17383C16.5227 8.11083 16.2749 7.84131 16.207 7.50586C16.1506 7.22686 16.0788 6.95281 15.9913 6.68608C15.8849 6.36208 15.9645 6.00813 16.223 5.7864L16.8446 5.25426C16.9935 5.12581 17.0307 4.90829 16.9325 4.7381L16.6577 4.2635C16.5595 4.09249 16.3544 4.01587 16.1687 4.08132L15.3889 4.35618C15.0665 4.46909 14.7198 4.36134 14.4924 4.10689C14.3042 3.89662 14.105 3.6966 13.8947 3.50923C13.6403 3.28178 13.5325 2.93511 13.6454 2.61275L13.9187 1.83292C13.9841 1.64719 13.9067 1.44211 13.7365 1.34393L13.2635 1.06907C13.0925 0.97007 12.8758 1.00723 12.7473 1.15696L12.2152 1.77859C11.9935 2.03713 11.6379 2.11666 11.3139 2.0103C11.0472 1.92275 10.7731 1.85102 10.4941 1.79457C10.1587 1.72666 9.89077 1.47885 9.82777 1.14258L9.67596 0.333984C9.63996 0.140075 9.47204 0 9.27486 0H8.72514ZM9 4.09091C11.7115 4.09091 13.9091 6.28855 13.9091 9C13.9091 11.7115 11.7115 13.9091 9 13.9091C6.28855 13.9091 4.09091 11.7115 4.09091 9C4.09091 6.28855 6.28855 4.09091 9 4.09091ZM9 7.36364C8.09591 7.36364 7.36364 8.09591 7.36364 9C7.36364 9.90409 8.09591 10.6364 9 10.6364C9.90409 10.6364 10.6364 9.90409 10.6364 9C10.6364 8.09591 9.90409 7.36364 9 7.36364Z" fill="#C4C4C4"/>
</svg>
