<svg width="19" height="19" viewBox="0 0 19 19" fill="none" xmlns="http://www.w3.org/2000/svg">
<path d="M3.30987 8.45929e-05C3.21223 -0.00120287 3.11532 0.0167327 3.02486 0.0528318C2.93441 0.0889309 2.85223 0.142461 2.7832 0.210261C2.64619 0.344795 2.56922 0.527246 2.56922 0.717485C2.56922 0.907725 2.64619 1.09018 2.7832 1.22471C2.92024 1.35922 3.10609 1.43478 3.29988 1.43478C3.49366 1.43478 3.67952 1.35922 3.81656 1.22471C3.95357 1.09018 4.03054 0.907725 4.03054 0.717485C4.03054 0.527246 3.95357 0.344795 3.81656 0.210261C3.68199 0.0780921 3.5002 0.00268579 3.30987 8.45929e-05ZM15.7115 8.45929e-05C15.6137 -0.00139106 15.5165 0.016453 15.4258 0.0525574C15.335 0.0886619 15.2526 0.142291 15.1834 0.210261C15.0464 0.344795 14.9695 0.527246 14.9695 0.717485C14.9695 0.907725 15.0464 1.09018 15.1834 1.22471C15.3205 1.35922 15.5063 1.43478 15.7001 1.43478C15.8939 1.43478 16.0798 1.35922 16.2168 1.22471C16.3538 1.09018 16.4308 0.907725 16.4308 0.717485C16.4308 0.527246 16.3538 0.344795 16.2168 0.210261C16.0826 0.0784275 15.9014 0.00304866 15.7115 8.45929e-05ZM9.5 0.347576C5.86735 0.347576 2.92308 3.23798 2.92308 6.80418C2.92308 10.3912 5.84615 11.826 7.30769 14.6956H11.6923C13.1538 11.826 16.0769 10.3912 16.0769 6.80418C16.0769 3.23798 13.1327 0.347576 9.5 0.347576ZM9.5 2.49978V6.08678H12.4231L9.5 11.1086V7.52158H6.57692L9.5 2.49978ZM0.730769 6.08678C0.536957 6.08678 0.351083 6.16237 0.214037 6.29691C0.0769915 6.43144 0 6.61392 0 6.80418C0 6.99445 0.0769915 7.17692 0.214037 7.31146C0.351083 7.446 0.536957 7.52158 0.730769 7.52158C0.924581 7.52158 1.11046 7.446 1.2475 7.31146C1.38455 7.17692 1.46154 6.99445 1.46154 6.80418C1.46154 6.61392 1.38455 6.43144 1.2475 6.29691C1.11046 6.16237 0.924581 6.08678 0.730769 6.08678ZM18.2692 6.08678C18.0754 6.08678 17.8895 6.16237 17.7525 6.29691C17.6155 6.43144 17.5385 6.61392 17.5385 6.80418C17.5385 6.99445 17.6155 7.17692 17.7525 7.31146C17.8895 7.446 18.0754 7.52158 18.2692 7.52158C18.463 7.52158 18.6489 7.446 18.786 7.31146C18.923 7.17692 19 6.99445 19 6.80418C19 6.61392 18.923 6.43144 18.786 6.29691C18.6489 6.16237 18.463 6.08678 18.2692 6.08678ZM3.30987 12.1735C3.21199 12.172 3.11481 12.1898 3.0241 12.226C2.93338 12.2621 2.85097 12.3157 2.78178 12.3837C2.64476 12.5182 2.56779 12.7006 2.56779 12.8909C2.56779 13.0811 2.64476 13.2636 2.78178 13.3981C2.84966 13.4649 2.9303 13.5179 3.01908 13.5541C3.10787 13.5903 3.20304 13.6089 3.29917 13.6089C3.39529 13.6089 3.49047 13.5903 3.57925 13.5541C3.66803 13.5179 3.74867 13.4649 3.81656 13.3981C3.95357 13.2636 4.03054 13.0811 4.03054 12.8909C4.03054 12.7006 3.95357 12.5182 3.81656 12.3837C3.68199 12.2515 3.5002 12.1761 3.30987 12.1735ZM15.7101 12.1749C15.6126 12.1734 15.5157 12.1911 15.4253 12.227C15.3348 12.2628 15.2526 12.3161 15.1834 12.3837C15.1154 12.4503 15.0614 12.5295 15.0246 12.6166C14.9877 12.7038 14.9687 12.7972 14.9687 12.8916C14.9687 12.9859 14.9877 13.0794 15.0246 13.1665C15.0614 13.2537 15.1154 13.3329 15.1834 13.3995C15.3205 13.534 15.5063 13.6096 15.7001 13.6096C15.8939 13.6096 16.0798 13.534 16.2168 13.3995C16.2849 13.3329 16.3388 13.2537 16.3757 13.1665C16.4125 13.0794 16.4315 12.9859 16.4315 12.8916C16.4315 12.7972 16.4125 12.7038 16.3757 12.6166C16.3388 12.5295 16.2849 12.4503 16.2168 12.3837C16.082 12.252 15.9002 12.1771 15.7101 12.1749ZM7.30769 16.1304V16.8478C7.30769 17.6405 7.96173 18.2826 8.76923 18.2826C8.76923 18.4729 8.84622 18.6553 8.98327 18.7899C9.12031 18.9244 9.30619 19 9.5 19C9.69381 19 9.87969 18.9244 10.0167 18.7899C10.1538 18.6553 10.2308 18.4729 10.2308 18.2826C11.0383 18.2826 11.6923 17.6405 11.6923 16.8478V16.1304H7.30769Z" fill="#C4C4C4"/>
</svg>
