<svg width="18" height="18" viewBox="0 0 18 18" fill="none" xmlns="http://www.w3.org/2000/svg">
<rect width="10.8" height="1.8" rx="0.899999" transform="matrix(-1 8.74228e-08 8.74228e-08 1 14.4 0)" fill="#C4C4C4"/>
<path fill-rule="evenodd" clip-rule="evenodd" d="M2 7.19971C0.895431 7.19971 0 8.09514 0 9.19971V15.9997C0 17.1043 0.89543 17.9997 2 17.9997H16C17.1046 17.9997 18 17.1043 18 15.9997V9.19971C18 8.09514 17.1046 7.19971 16 7.19971H2ZM11.1 13.4657C11.7667 13.0808 11.7667 12.1186 11.1 11.7337L8.7 10.348C8.03333 9.96314 7.2 10.4443 7.2 11.2141V13.9853C7.2 14.7551 8.03333 15.2363 8.7 14.8514L11.1 13.4657Z" fill="#C4C4C4"/>
<rect width="14.4" height="1.8" rx="0.899999" transform="matrix(-1 8.74228e-08 8.74228e-08 1 16.2 3.6001)" fill="#C4C4C4"/>
</svg>
