<svg width="20" height="20" viewBox="0 0 20 20" fill="none" xmlns="http://www.w3.org/2000/svg">
<path d="M14.8416 3.72484C14.7749 3.72484 14.7083 3.70817 14.6499 3.67484C13.0499 2.84984 11.6666 2.49984 10.0083 2.49984C8.35828 2.49984 6.79161 2.8915 5.36661 3.67484C5.16661 3.78317 4.91661 3.70817 4.79995 3.50817C4.69161 3.30817 4.76661 3.04984 4.96661 2.9415C6.51661 2.09984 8.21661 1.6665 10.0083 1.6665C11.7833 1.6665 13.3333 2.05817 15.0333 2.93317C15.2416 3.0415 15.3166 3.2915 15.2083 3.4915C15.1333 3.6415 14.9916 3.72484 14.8416 3.72484ZM2.91661 8.09984C2.83328 8.09984 2.74995 8.07484 2.67495 8.02484C2.48328 7.8915 2.44161 7.63317 2.57495 7.4415C3.39995 6.27484 4.44995 5.35817 5.69995 4.7165C8.31661 3.3665 11.6666 3.35817 14.2916 4.70817C15.5416 5.34984 16.5916 6.25817 17.4166 7.4165C17.5499 7.59984 17.5083 7.8665 17.3166 7.99984C17.1249 8.13317 16.8666 8.0915 16.7333 7.89984C15.9833 6.84984 15.0333 6.02484 13.9083 5.44984C11.5166 4.22484 8.45828 4.22484 6.07495 5.45817C4.94161 6.0415 3.99161 6.87484 3.24161 7.92484C3.17495 8.0415 3.04995 8.09984 2.91661 8.09984ZM8.12495 18.1582C8.01661 18.1582 7.90828 18.1165 7.83328 18.0332C7.10828 17.3082 6.71661 16.8415 6.15828 15.8332C5.58328 14.8082 5.28328 13.5582 5.28328 12.2165C5.28328 9.7415 7.39995 7.72484 9.99995 7.72484C12.5999 7.72484 14.7166 9.7415 14.7166 12.2165C14.7166 12.4498 14.5333 12.6332 14.2999 12.6332C14.0666 12.6332 13.8833 12.4498 13.8833 12.2165C13.8833 10.1998 12.1416 8.55817 9.99995 8.55817C7.85828 8.55817 6.11661 10.1998 6.11661 12.2165C6.11661 13.4165 6.38328 14.5248 6.89161 15.4248C7.42495 16.3832 7.79161 16.7915 8.43328 17.4415C8.59161 17.6082 8.59161 17.8665 8.43328 18.0332C8.34161 18.1165 8.23328 18.1582 8.12495 18.1582ZM14.0999 16.6165C13.1083 16.6165 12.2333 16.3665 11.5166 15.8748C10.2749 15.0332 9.53328 13.6665 9.53328 12.2165C9.53328 11.9832 9.71661 11.7998 9.94995 11.7998C10.1833 11.7998 10.3666 11.9832 10.3666 12.2165C10.3666 13.3915 10.9666 14.4998 11.9833 15.1832C12.5749 15.5832 13.2666 15.7748 14.0999 15.7748C14.2999 15.7748 14.6333 15.7498 14.9666 15.6915C15.1916 15.6498 15.4083 15.7998 15.4499 16.0332C15.4916 16.2582 15.3416 16.4748 15.1083 16.5165C14.6333 16.6082 14.2166 16.6165 14.0999 16.6165ZM12.4249 18.3332C12.3916 18.3332 12.3499 18.3248 12.3166 18.3165C10.9916 17.9498 10.1249 17.4582 9.21661 16.5665C8.04995 15.4082 7.40828 13.8665 7.40828 12.2165C7.40828 10.8665 8.55828 9.7665 9.97495 9.7665C11.3916 9.7665 12.5416 10.8665 12.5416 12.2165C12.5416 13.1082 13.3166 13.8332 14.2749 13.8332C15.2333 13.8332 16.0083 13.1082 16.0083 12.2165C16.0083 9.07484 13.2999 6.52484 9.96661 6.52484C7.59995 6.52484 5.43328 7.8415 4.45828 9.88317C4.13328 10.5582 3.96661 11.3498 3.96661 12.2165C3.96661 12.8665 4.02495 13.8915 4.52495 15.2248C4.60828 15.4415 4.49995 15.6832 4.28328 15.7582C4.06661 15.8415 3.82495 15.7248 3.74995 15.5165C3.34161 14.4248 3.14161 13.3415 3.14161 12.2165C3.14161 11.2165 3.33328 10.3082 3.70828 9.5165C4.81661 7.1915 7.27495 5.68317 9.96661 5.68317C13.7583 5.68317 16.8416 8.60817 16.8416 12.2082C16.8416 13.5582 15.6916 14.6582 14.2749 14.6582C12.8583 14.6582 11.7083 13.5582 11.7083 12.2082C11.7083 11.3165 10.9333 10.5915 9.97495 10.5915C9.01661 10.5915 8.24161 11.3165 8.24161 12.2082C8.24161 13.6332 8.79161 14.9665 9.79995 15.9665C10.5916 16.7498 11.3499 17.1832 12.5249 17.5082C12.7499 17.5665 12.8749 17.7998 12.8166 18.0165C12.7749 18.2082 12.5999 18.3332 12.4249 18.3332Z" fill="#C4C4C4"/>
</svg>
