<svg width="20" height="16" viewBox="0 0 20 16" fill="none" xmlns="http://www.w3.org/2000/svg">
<path opacity="0.3" d="M9.66807 0C4.08393 0 0.333382 3.08378 0 3.33382L2.66705 6.58429L9.66807 15.4189L12.5852 11.835V9.66807C12.5852 7.83447 13.752 6.33425 15.3356 5.75083C15.5856 5.66749 15.7523 5.58414 16.0023 5.58414C16.2524 5.5008 16.5024 5.5008 16.7524 5.5008C17.0858 5.5008 17.3358 5.5008 17.5859 5.58414L19.3361 3.33382C19.0028 3.08378 15.2522 0 9.66807 0Z" fill="#C4C4C4"/>
<path d="M18.8361 10.8351V9.58493C18.8361 8.4181 17.9193 7.5013 16.7525 7.5013C15.5856 7.5013 14.6688 8.4181 14.6688 9.58493V10.8351C14.2521 10.8351 13.8354 11.2518 13.8354 11.6686V15.0024C13.8354 15.4191 14.2521 15.8358 14.6688 15.8358H18.8361C19.2528 15.8358 19.6695 15.4191 19.6695 15.0024V11.6686C19.6695 11.2518 19.2528 10.8351 18.8361 10.8351ZM18.0026 10.8351H15.5023V9.58493C15.5023 8.91817 16.0857 8.33475 16.7525 8.33475C17.4192 8.33475 18.0026 8.91817 18.0026 9.58493V10.8351ZM9.6681 15.4191L12.5852 11.8353V9.66828C12.5852 7.83468 13.752 6.33446 15.3356 5.75104C14.0854 5.00093 12.0851 4.16748 9.6681 4.16748C5.66752 4.16748 3.00047 6.33446 2.58374 6.5845" fill="#C4C4C4"/>
</svg>
